<?xml version="1.0" standalone="no"?>
<!DOCTYPE svg PUBLIC "-//W3C//DTD SVG 20010904//EN"
 "http://www.w3.org/TR/2001/REC-SVG-20010904/DTD/svg10.dtd">
<svg version="1.0" xmlns="http://www.w3.org/2000/svg"
 width="512.000000pt" height="512.000000pt" viewBox="0 0 512.000000 512.000000"
 preserveAspectRatio="xMidYMid meet">

<g transform="translate(0.000000,512.000000) scale(0.100000,-0.100000)"
fill="#000000" stroke="none">
<path d="M3197 4783 c-4 -3 -7 -258 -7 -565 0 -307 -2 -558 -3 -558 -2 0 -42
25 -88 57 -164 110 -379 195 -577 228 -128 22 -406 16 -522 -10 -574 -130
-1008 -563 -1125 -1123 -128 -616 160 -1244 713 -1556 473 -267 1071 -241
1517 68 l80 55 5 -142 5 -142 259 -3 c182 -2 263 1 272 9 19 16 21 3658 2
3677 -13 13 -519 18 -531 5z m-735 -1387 c231 -46 437 -180 569 -372 47 -68
107 -201 130 -289 28 -105 31 -306 5 -410 -45 -185 -111 -303 -244 -438 -339
-344 -893 -352 -1245 -18 -184 174 -277 395 -277 655 0 418 295 782 705 869
91 20 263 21 357 3z"/>
<path d="M4185 4778 c-3 -7 -6 -74 -7 -148 l-3 -135 -143 -5 c-112 -4 -145 -8
-152 -20 -14 -22 -12 -194 2 -208 8 -8 54 -12 143 -12 89 0 135 -4 143 -12 8
-8 12 -54 12 -143 0 -89 4 -135 12 -143 14 -14 185 -17 207 -3 10 6 13 40 12
143 -1 103 1 138 12 146 8 7 68 13 153 14 l139 3 3 104 c2 67 -1 108 -9 117
-9 11 -44 14 -149 14 -120 0 -139 2 -144 17 -4 9 -6 72 -5 139 0 67 -2 127 -6
133 -9 16 -214 15 -220 -1z"/>
<path d="M5000 1766 c-55 -52 -513 -339 -771 -484 -478 -267 -1148 -555 -1660
-712 l-134 -41 -85 27 c-707 219 -1563 635 -2160 1048 l-95 66 -3 -646 c-1
-399 2 -660 8 -683 16 -61 72 -143 124 -182 99 -75 -101 -70 2356 -67 l2205 3
50 25 c64 31 134 101 165 165 l25 50 3 723 c1 397 -1 722 -6 722 -4 0 -14 -6
-22 -14z"/>
</g>
</svg>
